<svg xmlns="http://www.w3.org/2000/svg" viewBox="0 0 287.56 191" width="287.56" height="191">
  <defs>
    <linearGradient id="a" x1="62.34" y1="101.45" x2="260.34" y2="91.45" gradientUnits="userSpaceOnUse">
      <stop offset="0" stop-color="#0064e1"/>
      <stop offset=".4" stop-color="#0064e1"/>
      <stop offset=".83" stop-color="#0073ee"/>
      <stop offset="1" stop-color="#0082fb"/>
    </linearGradient>
    <linearGradient id="b" x1="41.42" y1="53" x2="41.42" y2="126" gradientUnits="userSpaceOnUse">
      <stop offset="0" stop-color="#0082fb"/>
      <stop offset="1" stop-color="#0064e0"/>
    </linearGradient>
  </defs>
  <path d="M31.06 126c0 11 2.41 19.41 5.56 24.51A19 19 0 0 0 53.19 160c8.1 0 15.51-2 29.79-21.76 11.44-15.83 24.92-38 34-52l15.36-23.6c10.67-16.39 23-34.61 37.18-47C181.07 5.6 193.54 0 206.09 0c21.07 0 41.14 12.21 56.5 35.11 16.81 25.08 25 56.67 25 89.27 0 19.38-3.82 33.62-10.32 44.87C270.99 180.13 258.34 191 237.05 191v-31c18.23 0 22.78-16.75 22.78-35.91 0-27.31-6.37-57.62-20.4-79.25-10-15.35-22.92-24.73-37.14-24.73-15.37 0-27.74 11.59-41.65 32.27-7.4 11-15 24.4-23.51 39.5l-9.05 16C110.62 141.65 105.95 149 96.04 161.59 78.64 183.73 63.78 191 53.19 191 31.93 191 18.48 181.79 10.17 167.87 3.39 156.41 0 141.33 0 124.14Z" fill="#0081fb"/>
  <path d="M24.49 37.3C38.73 15.35 59.28 0 82.85 0c13.65 0 27.22 4 41.39 15.61 15.5 12.65 32 33.48 52.63 67.81l7.39 12.32c17.84 29.72 28 45 33.93 52.22 7.64 9.26 13 12 19.95 12 18.23 0 22.78-16.75 22.78-35.91l27.43-.86c0 19.38-3.82 33.62-10.32 44.87C270.99 180.13 258.34 191 237.05 191c-13.24 0-24.97-2.88-37.94-15.12-9.97-9.4-21.62-26.09-30.58-41.08l-26.66-44.54c-13.38-22.35-25.66-39-32.77-46.52-7.64-8.1-17.47-17.88-33.17-17.88-12.71 0-23.5 8.92-32.53 22.57Z" fill="url(#a)"/>
  <path d="M82.35 31.83c-12.71 0-23.5 8.92-32.53 22.57-12.76 19.3-20.59 48.05-20.59 75.62 0 11 2.41 19.41 5.56 24.51l-26.58 17.34C3.39 156.41 0 141.33 0 124.14 0 92.26 8.75 59 25.74 34.82 41.1 13 61.31 0 82.85 0c-.17 0-.08 31.83-.5 31.83Z" fill="url(#b)"/>
</svg>
